Coordinates
version=1
nRows=8
nColumns=40
inDegrees=yes

Units are S.I. units (second, meters, Newtons, ...)
Angles are in degrees.

endheader
time	pelvis_tilt	pelvis_list	pelvis_rotation	pelvis_tx	pelvis_ty	pelvis_tz	hip_flexion_r	hip_adduction_r	hip_rotation_r	knee_angle_r	knee_angle_r_beta	ankle_angle_r	subtalar_angle_r	mtp_angle_r	hip_flexion_l	hip_adduction_l	hip_rotation_l	knee_angle_l	knee_angle_l_beta	ankle_angle_l	subtalar_angle_l	mtp_angle_l	lumbar_extension	lumbar_bending	lumbar_rotation	arm_flex_r	arm_add_r	arm_rot_r	elbow_flex_r	pro_sup_r	wrist_flex_r	wrist_dev_r	arm_flex_l	arm_add_l	arm_rot_l	elbow_flex_l	pro_sup_l	wrist_flex_l	wrist_dev_l
     51.06428571	     -0.40630441	     -4.78935136	      2.11553798	      0.98341847	      0.91417757	      0.53290104	     12.88574761	      6.98717048	     -8.19818851	     29.58189411	     29.58189411	     18.24518800	    -10.93245517	     -1.02049110	     30.63870645	    -14.61849268	      0.41147131	     60.62725946	     60.62725946	     15.44288481	    -19.57840387	     22.89307136	    -11.01646307	      6.36873965	      0.37405780	     14.81054822	    -13.27295723	     -7.53101025	     38.61753819	     45.97860883	      0.00000000	      0.00000000	     10.00763042	     -9.00155591	     -1.31840258	     38.40193482	     46.35269408	      0.00000000	      0.00000000
     51.08357143	     -0.55689923	     -4.64339668	      2.57223007	      0.98183586	      0.91384545	      0.53362133	     12.80396545	      6.80521642	     -8.68007048	     29.69413487	     29.69413487	     18.60592462	    -10.76501181	     -0.83696015	     31.25368898	    -14.25902156	      0.22066687	     57.25014244	     57.25014244	     15.57963234	    -19.52767408	     22.09129546	    -10.96348732	      6.06998384	      0.40812570	     17.60355702	    -13.17047894	     -7.29804801	     40.35381273	     45.91318931	      0.00000000	      0.00000000	      7.72591628	     -8.59616813	     -0.09161481	     35.44096776	     46.15575356	      0.00000000	      0.00000000
     51.10285714	     -0.75394123	     -4.43640358	      2.97873694	      0.98017825	      0.91386859	      0.53410351	     12.67697759	      6.53522221	     -9.15410178	     29.63748259	     29.63748259	     18.91133445	    -10.40115936	     -0.63784023	     31.63613067	    -13.69723542	      0.14723788	     53.44957118	     53.44957118	     15.17249504	    -19.44468875	     20.81157621	    -10.87224886	      5.67347076	      0.64196526	     20.30487047	    -13.18135286	     -6.97193351	     42.25584371	     45.83648944	      0.00000000	      0.00000000	      5.47373241	     -8.26161113	      1.35824211	     32.71341577	     45.92011855	      0.00000000	      0.00000000
     51.12214286	     -0.93024598	     -4.19105919	      3.34983388	      0.97851130	      0.91433303	      0.53436666	     12.44985905	      6.21972750	     -9.59756256	     29.46126504	     29.46126504	     19.26574722	     -9.95942027	     -0.05167634	     31.66422522	    -13.01354355	      0.16494739	     49.22702984	     49.22702984	     13.86237504	    -19.30557555	     17.95548461	    -10.83950566	      5.25832541	      1.54647929	     22.30061249	    -13.90163051	     -6.18741264	     45.22643596	     45.68501791	      0.00000000	      0.00000000	      3.31963227	     -8.57415171	      6.90656104	     30.94712954	     45.08341682	      0.00000000	      0.00000000
     51.14142857	     -1.16734652	     -3.95796674	      3.73661700	      0.97676981	      0.91501390	      0.53424761	     12.17912054	      5.86148371	    -10.18648458	     29.06792312	     29.06792312	     19.33096854	     -9.36046922	     -0.16267217	     31.68677192	    -12.16018840	      0.57709046	     45.09174064	     45.09174064	     12.98417110	    -19.02726631	     17.19153059	    -10.73696130	      4.87698535	      1.58599571	     25.30179483	    -13.82780860	     -6.27707054	     47.06045417	     45.63812150	      0.00000000	      0.00000000	      0.64046159	     -8.37541037	      7.49043602	     29.56375233	     44.96337851	      0.00000000	      0.00000000
     51.16071429	     -1.54875994	     -3.72315839	      4.04699577	      0.97505918	      0.91583826	      0.53392594	     11.93544620	      5.56383804	    -10.52964372	     28.41688007	     28.41688007	     19.29063647	     -9.03419662	     -0.10145782	     31.70627596	    -11.28266986	      1.13725103	     41.03994954	     41.03994954	     12.25413285	    -18.40646709	     17.12963346	    -10.45035002	      4.42662263	      2.30659369	     27.98450209	    -14.32467581	     -6.40766702	     48.47803193	     45.60789870	      0.00000000	      0.00000000	     -1.75336323	     -8.08821826	      7.80645984	     28.64010814	     44.87942815	      0.00000000	      0.00000000
     51.18000000	     -1.61738325	     -3.59358102	      4.47171675	      0.97358265	      0.91715919	      0.53327059	     11.24961745	      5.25076813	    -11.44444740	     27.66010477	     27.66010477	     19.39454510	     -7.77240780	     -0.32689538	     31.22949699	    -10.59543639	      1.71117261	     36.98578972	     36.98578972	     10.79591065	    -17.42696530	     15.07481707	    -10.55679522	      4.23190332	      2.03783239	     30.99368178	    -14.17937933	     -6.22294169	     50.99904449	     45.52447531	      0.00000000	      0.00000000	     -4.53360567	     -8.12867476	      8.65810450	     27.68659183	     44.70184843	      0.00000000	      0.00000000
     51.19928571	     -1.87142498	     -3.56854069	      4.80320541	      0.97228626	      0.91815438	      0.53259684	     10.70106799	      5.15068690	    -12.01893801	     26.73082288	     26.73082288	     19.19229313	     -7.02546996	     -0.67748350	     30.73667315	    -10.19430380	      1.96847804	     32.86529298	     32.86529298	      7.76010134	    -16.36357270	      8.54860130	    -10.34417111	      4.06429559	      2.85372090	     33.13191299	    -15.27852214	     -5.24345615	     53.90336414	     45.39854504	      0.00000000	      0.00000000	     -7.28840348	     -8.67030218	     11.80266697	     28.61671999	     44.17132101	      0.00000000	      0.00000000
